<?xml version="1.0" standalone="no"?><!DOCTYPE svg PUBLIC "-//W3C//DTD SVG 1.1//EN" "http://www.w3.org/Graphics/SVG/1.1/DTD/svg11.dtd"><svg t="1752451620025" class="icon" viewBox="0 0 1024 1024" version="1.1" xmlns="http://www.w3.org/2000/svg" p-id="4319" xmlns:xlink="http://www.w3.org/1999/xlink" width="200" height="200"><path d="M768.049338 139.636364v69.818181C363.103884 214.109091 41.940247 535.272727 46.594793 926.254545H0.049338C-4.605207 498.036364 339.831156 144.290909 768.049338 139.636364z" p-id="4320" fill="#000000"></path><path d="M768.049338 209.454545V279.272727C363.103884 279.272727 41.940247 572.509091 46.594793 926.254545H0.049338C-4.605207 535.272727 339.831156 214.109091 768.049338 209.454545z" p-id="4321" fill="#000000"></path><path d="M768.049338 209.454545V279.272727C363.103884 279.272727 41.940247 572.509091 46.594793 926.254545H0.049338C-4.605207 535.272727 339.831156 214.109091 768.049338 209.454545z" p-id="4322" fill="#000000"></path><path d="M768.049338 209.454545V279.272727C386.376611 279.272727 79.176611 572.509091 83.831156 926.254545H41.940247C37.285702 535.272727 363.103884 214.109091 768.049338 209.454545z" p-id="4323" fill="#000000"></path><path d="M768.049338 279.272727v69.818182c-381.672727 0-688.872727 260.654545-684.218182 577.163636H41.940247C37.285702 563.2 358.449338 283.927273 768.049338 279.272727z" p-id="4324" fill="#000000"></path><path d="M726.158429 209.454545V279.272727C344.485702 283.927273 37.285702 577.163636 41.940247 930.909091H0.049338C-4.605207 535.272727 321.212975 214.109091 726.158429 209.454545z" p-id="4325" fill="#000000"></path><path d="M591.176611 9.309091L1024.049338 269.963636l-451.490909 223.418182 18.618182-484.072727z m256 256l-176.872727-97.745455-4.654546 186.181819 181.527273-88.436364z" p-id="4326" fill="#000000"></path><path d="M651.685702 111.709091h37.236363c27.927273 0 37.236364 18.618182 51.2 23.272727l-13.963636 13.963637 13.963636-9.309091c4.654545 0 13.963636 9.309091 23.272728 18.618181 51.2 23.272727 102.4 51.2 93.090909 97.745455 0 13.963636-9.309091 37.236364-46.545455 51.2-46.545455 13.963636-97.745455-4.654545-121.018182-27.927273-13.963636-13.963636-60.509091-116.363636-51.2-139.636363l13.963637-27.927273z" p-id="4327" fill="#000000"></path><path d="M716.849338 260.654545l46.545455 60.509091c-13.963636 4.654545-23.272727 18.618182-37.236364 32.581819l-65.163636-46.545455c23.272727-18.618182 32.581818-32.581818 55.854545-46.545455z" p-id="4328" fill="#000000"></path><path d="M758.740247 251.345455l46.545455 51.2c-23.272727 18.618182-41.890909 37.236364-41.890909 55.854545l-74.472728 4.654545c0-55.854545 41.890909-93.090909 69.818182-111.70909z" p-id="4329" fill="#000000"></path></svg>